#!OML:ASF X:\für Bonn\!DataBase\2005_08_10_Bjorn_Final\c3d\bjorn.ASF
:FULLY-SPECIFIED
:DEGREES
132
root -1.31306 9.77001 18.389 -374.155 -197.933 -16.5174
lowerback 51.5735 -17.4284 11.3445
upperback 21.8581 -2.45931 9.18507
thorax 4.15708 3.14537 6.35641
lowerneck 6.55003 -2.14939 12.9987
upperneck -14.9186 -1.36389 -1.81147
head -5.74149 -1.16207 -2.60609
rclavicle -1.33583e-013 -5.52621e-014
rhumerus -184.347 -137.083 128.776
rradius 30.5824
rwrist -16.7424
rhand -14.1678 7.09772
rfingers 7.12502
rthumb 11.9673 -22.5402
lclavicle -1.33583e-013 -5.52621e-014
lhumerus -380.315 -31.3592 -324.266
lradius 84.6221
lwrist 10.5975
lhand -27.6732 -4.02311
lfingers 7.12502
lthumb -1.07025 25.954
rfemur -88.5452 -32.1652 -0.85927
rtibia 128.227
rfoot -28.8865 34.8074
rtoes -17.7894
lfemur -75.1334 18.8538 -28.3961
ltibia 130.688
lfoot -32.6449 12.586
ltoes -25.0499
133
root -1.27129 9.62442 18.4091 -374.948 -197.577 -16.401
lowerback 51.5376 -17.5953 11.1763
upperback 21.9165 -2.6947 9.03621
thorax 4.2335 3.08162 6.35046
lowerneck 6.0682 -1.72387 12.9116
upperneck -14.5225 -0.876719 -1.95902
head -5.49514 -0.88514 -2.67358
rclavicle 7.31528e-014 3.65764e-014
rhumerus -185.496 -137.475 128.587
rradius 31.4188
rwrist -17.1843
rhand -14.0977 7.6144
rfingers 7.12502
rthumb 12.0349 -22.0196
lclavicle 7.31528e-014 3.65764e-014
lhumerus -380.499 -31.5563 -324.459
lradius 84.278
lwrist 11.2363
lhand -28.0014 -3.76432
lfingers 7.12502
lthumb -1.3873 26.2109
rfemur -88.7226 -33.8269 -0.625739
rtibia 129.282
rfoot -29.3291 35.5848
rtoes -17.6762
lfemur -75.0097 19.6016 -27.7994
ltibia 131.628
lfoot -32.824 11.7537
ltoes -24.2225
134
root -1.22806 9.47896 18.4282 -375.754 -197.218 -16.2666
lowerback 51.5252 -17.7542 10.9714
upperback 21.9759 -2.92675 8.90835
thorax 4.3077 3.01476 6.3824
lowerneck 5.6517 -1.30905 12.7866
upperneck -14.196 -0.402011 -2.14001
head -5.28274 -0.613035 -2.74114
rclavicle -2.8625e-014 5.04913e-014
rhumerus -186.574 -138.029 128.395
rradius 32.2255
rwrist -17.4876
rhand -14.2002 7.84476
rfingers 7.12502
rthumb 11.9361 -21.795
lclavicle -2.8625e-014 5.04913e-014
lhumerus -380.81 -31.83 -324.521
lradius 83.9867
lwrist 11.9252
lhand -28.4588 -3.6336
lfingers 7.12502
lthumb -1.82906 26.3383
rfemur -88.8681 -35.6329 -0.390241
rtibia 130.32
rfoot -29.727 36.4931
rtoes -17.3434
lfemur -74.8553 20.4412 -27.187
ltibia 132.556
lfoot -32.9915 10.9943
ltoes -23.4045
135
root -1.18409 9.331 18.4475 -376.556 -196.85 -16.1267
lowerback 51.5037 -17.9039 10.7103
upperback 22.0469 -3.18061 8.776
thorax 4.39526 2.93247 6.4392
lowerneck 5.34953 -0.895276 12.7013
upperneck -13.9575 0.0831585 -2.4047
head -5.11642 -0.336 -2.83952
rclavicle -1.59028e-013 -8.54774e-014
rhumerus -187.643 -138.866 128.146
rradius 33.1612
rwrist -17.8313
rhand -14.4551 7.7376
rfingers 7.12502
rthumb 11.6903 -21.9162
lclavicle -1.59028e-013 -8.54774e-014
lhumerus -381.21 -32.0628 -324.514
lradius 83.7081
lwrist 12.6095
lhand -28.5395 -3.80762
lfingers 7.12502
lthumb -1.90695 26.1636
rfemur -89.0723 -37.6337 -0.122848
rtibia 131.375
rfoot -30.2744 37.3999
rtoes -17.162
lfemur -74.7302 21.3296 -26.5574
ltibia 133.467
lfoot -33.1181 10.2287
ltoes -22.611
